HIERARCHY
ROOT Hips
{
	OFFSET 0.00000 0.00000 0.00000
	CHANNELS 6 Xposition Yposition Zposition Zrotation Yrotation Xrotation 
	JOINT LHipJoint
	{
		OFFSET 0 0 0
		CHANNELS 3 Zrotation Yrotation Xrotation
		JOINT LeftHip
		{
			OFFSET 1.32989 -1.57253 0.78074
			CHANNELS 3 Zrotation Yrotation Xrotation
			JOINT LeftKnee
			{
				OFFSET 2.24323 -6.16323 0.00000
				CHANNELS 3 Zrotation Yrotation Xrotation
				JOINT LeftAnkle
				{
					OFFSET 2.32677 -6.39275 0.00000
					CHANNELS 3 Zrotation Yrotation Xrotation
					JOINT LeftToe
					{
						OFFSET 0.18686 -0.51340 1.95973
						CHANNELS 3 Zrotation Yrotation Xrotation
						End Site
						{
							OFFSET 0.00000 -0.00000 1.02033
						}
					}
				}
			}
		}
	}
	JOINT RHipJoint
	{
		OFFSET 0 0 0
		CHANNELS 3 Zrotation Yrotation Xrotation
		JOINT RightHip
		{
			OFFSET -1.27392 -1.57253 0.78074
			CHANNELS 3 Zrotation Yrotation Xrotation
			JOINT RightKnee
			{
				OFFSET -2.19978 -6.04385 0.00000
				CHANNELS 3 Zrotation Yrotation Xrotation
				JOINT RightAnkle
				{
					OFFSET -2.29380 -6.30216 0.00000
					CHANNELS 3 Zrotation Yrotation Xrotation
					JOINT RightToe
					{
						OFFSET -0.24624 -0.67655 1.94854
						CHANNELS 3 Zrotation Yrotation Xrotation
						End Site
						{
							OFFSET -0.00000 -0.00000 1.03267
						}
					}
				}
			}
		}
	}
	JOINT lowerback
	{
		OFFSET 0 0 0
		CHANNELS 3 Zrotation Yrotation Xrotation
		JOINT Chest
		{
			OFFSET -0.05982 2.08655 0.02100
			CHANNELS 3 Zrotation Yrotation Xrotation
			JOINT Chest2
			{
				OFFSET 0.04735 2.08455 -0.01795
				CHANNELS 3 Zrotation Yrotation Xrotation
				JOINT lowerneck
				{
					OFFSET 0 0 0
					CHANNELS 3 Zrotation Yrotation Xrotation
					JOINT Neck
					{
						OFFSET -0.10038 1.43781 0.03084
						CHANNELS 3 Zrotation Yrotation Xrotation
						JOINT Head
						{
							OFFSET 0.07701 1.43632 -0.18495
							CHANNELS 3 Zrotation Yrotation Xrotation
							End Site
							{
								OFFSET 0.02744 1.45633 -0.07361
							}
						}
					}
				}
				JOINT LeftCollar
				{
					OFFSET 0 0 0
					CHANNELS 3 Zrotation Yrotation Xrotation
					JOINT LeftShoulder
					{
						OFFSET 2.75061 0.74389 0.25227
CHANNELS 3 Zrotation Xrotation Yrotation
						JOINT LeftElbow
						{
OFFSET 0 -4.369010 0.000000
CHANNELS 3 Zrotation Xrotation Yrotation
							JOINT LeftWrist
							{
OFFSET 0 -3.217370 -0.000000
CHANNELS 3 Zrotation Xrotation Yrotation
								JOINT lhand
								{
									OFFSET 0 0 0
CHANNELS 3 Zrotation Xrotation Yrotation
									JOINT LFingers
									{
OFFSET 0 -0.564310 0.000000
CHANNELS 3 Zrotation Xrotation Yrotation
										End Site
										{
OFFSET 0 -0.454960 0.000000
										}
									}
								}
								JOINT LThumb
								{
OFFSET 0 0.000000 0.000000
CHANNELS 3 Zrotation Xrotation Yrotation
									End Site
									{
OFFSET 0 -0.461910 0.461910
									}
								}
							}
						}
					}
				}
				JOINT RightCollar
				{
					OFFSET 0 0 0
					CHANNELS 3 Zrotation Yrotation Xrotation
					JOINT RightShoulder
					{
						OFFSET -2.97379 0.79094 0.48377
CHANNELS 3 Zrotation Xrotation Yrotation
						JOINT RightElbow
						{
OFFSET 0 -4.341180 -0.000000
CHANNELS 3 Zrotation Xrotation Yrotation
							JOINT RightWrist
							{
OFFSET 0 -3.095310 0.000000
CHANNELS 3 Zrotation Xrotation Yrotation
								JOINT rhand
								{
									OFFSET 0 0 0
CHANNELS 3 Zrotation Xrotation Yrotation
									JOINT RFingers
									{
OFFSET 0 -0.597450 0.000000
CHANNELS 3 Zrotation Xrotation Yrotation
										End Site
										{
OFFSET 0 -0.481680 0.000000
										}
									}
								}
								JOINT RThumb
								{
OFFSET 0 0.000000 0.000000
CHANNELS 3 Zrotation Xrotation Yrotation
									End Site
									{
OFFSET 0 -0.489030 0.489030
									}
								}
							}
						}
					}
				}
			}
		}
	}
}
MOTION
Frames: 6
Frame Time: 0.008333333333333333
11.102200 15.260200 -22.056100 176.084000 -52.071700 -169.218000 0.000000 0.000000 0.000000 -19.246800 15.548200 -49.026700 8.554600 16.512400 54.536500 0.351800 1.800900 -12.008000 1.047900 -6.509600 -18.270400 0.000000 0.000000 0.000000 13.977300 14.614700 -17.152600 -4.248800 -12.484300 37.467500 -1.772200 8.201100 -23.858000 -0.934600 6.158000 -17.243600 -0.643800 0.081600 1.993900 1.900000 0.096800 0.043800 2.306700 0.048400 -1.077300 5.091400 13.010200 -4.419100 -9.888600 18.203800 11.682800 -2.563700 8.495900 5.636400 0.000000 -0.000000 0.000000 9.601200 -2.591800 -49.500000 22.041900 -33.024400 6.608700 18.000200 -9.411500 -47.824400 0.000000 0.000000 0.000000 -7.125000 0.000000 0.000000 -44.127700 75.694600 33.168400 0.000000 -0.000000 0.000000 -19.953600 3.579300 22.642000 -25.813500 -37.024000 -8.775100 -22.782200 -18.607900 -20.127100 0.000000 0.000000 0.000000 7.125000 0.000000 -0.000000 3.617500 8.337500 3.061000
11.127088 15.274689 -22.025172 175.877556 -51.303575 -169.046346 0.000000 0.000000 0.000000 -18.385469 15.921443 -48.204976 8.553988 16.511979 54.534436 0.354323 2.166765 -12.257950 0.809572 -5.619635 -15.715884 0.000000 0.000000 0.000000 13.652686 15.111236 -17.310950 -4.227391 -12.456927 37.368254 -1.733511 8.257108 -23.588896 -0.964229 6.250862 -17.514539 -0.812205 -0.058706 2.005178 1.819946 -0.093473 0.065324 2.324515 -0.045685 -1.052412 5.200662 13.160789 -4.479733 -9.834963 18.399463 11.766907 -2.535983 8.593311 5.693096 0.000000 0.000000 0.000000 9.948829 -3.389706 -49.789863 22.179185 -33.178392 6.683899 17.652571 -9.496945 -47.933280 0.000000 0.000000 0.000000 -7.125000 0.000000 0.000000 -44.801434 75.625174 33.656067 0.000000 0.000000 0.000000 -20.751583 3.633128 22.393579 -25.259045 -36.458955 -8.446930 -22.640595 -18.746829 -19.935260 0.000000 0.000000 0.000000 7.125000 0.000000 0.000000 3.692087 8.562218 3.107297
11.151976 15.289179 -21.994243 175.671112 -50.535450 -168.874691 0.000000 0.000000 0.000000 -17.524139 16.294686 -47.383252 8.553377 16.511559 54.532371 0.356846 2.532630 -12.507901 0.571244 -4.729670 -13.161368 0.000000 0.000000 0.000000 13.328072 15.607772 -17.469301 -4.205982 -12.429554 37.269008 -1.694822 8.313115 -23.319793 -0.993857 6.343723 -17.785477 -0.980610 -0.199011 2.016456 1.739891 -0.283745 0.086847 2.342331 -0.139770 -1.027524 5.309925 13.311379 -4.540367 -9.781326 18.595126 11.851014 -2.508266 8.690722 5.749791 0.000000 0.000000 0.000000 10.296458 -4.187613 -50.079726 22.316471 -33.332384 6.759098 17.304942 -9.582390 -48.042160 0.000000 0.000000 0.000000 -7.125000 0.000000 0.000000 -45.475168 75.555747 34.143734 0.000000 0.000000 0.000000 -21.549566 3.686957 22.145158 -24.704589 -35.893910 -8.118761 -22.498989 -18.885758 -19.743420 0.000000 0.000000 0.000000 7.125000 0.000000 0.000000 3.766675 8.786936 3.153594
11.175380 15.305930 -21.963594 175.475833 -49.762198 -168.690696 0.000000 0.000000 0.000000 -16.660605 16.601232 -46.450346 8.515802 16.485458 54.399511 0.346309 2.943449 -12.599377 0.413496 -4.125506 -11.430423 0.000000 0.000000 0.000000 13.000666 16.119059 -17.634467 -4.177756 -12.393161 37.137529 -1.650153 8.369387 -23.005073 -1.010087 6.394730 -17.934215 -1.131018 -0.325668 2.001040 1.639078 -0.455096 0.095355 2.327855 -0.224364 -1.001960 5.432938 13.444031 -4.585178 -9.732331 18.763478 11.905121 -2.488203 8.777173 5.794117 0.000000 0.000000 0.000000 10.717249 -5.022276 -50.383251 22.452933 -33.484804 6.834165 17.243233 -9.452756 -48.235044 0.000000 0.000000 0.000000 -7.125000 0.000000 0.000000 -46.180782 75.645367 34.800290 0.000000 0.000000 0.000000 -22.155124 3.816254 21.489674 -24.160829 -35.329629 -7.801169 -22.329206 -18.551383 -19.651303 0.000000 0.000000 0.000000 7.125000 0.000000 0.000000 3.867971 8.910227 3.229832
11.196407 15.326307 -21.933392 175.298444 -48.980731 -168.486928 0.000000 0.000000 0.000000 -15.793540 16.800909 -45.339294 8.419003 16.418211 54.057082 0.314846 3.426299 -12.436936 0.384862 -3.979275 -11.019064 0.000000 0.000000 0.000000 12.668788 16.653978 -17.810557 -4.138608 -12.342314 36.954406 -1.595904 8.426083 -22.617264 -1.004850 6.378673 -17.887154 -1.252590 -0.430458 1.942853 1.505004 -0.596128 0.083006 2.261640 -0.293753 -0.975314 5.577984 13.547941 -4.604637 -9.690774 18.888071 11.911162 -2.480404 8.846065 5.818623 0.000000 0.000000 0.000000 11.255265 -5.915835 -50.708668 22.588078 -33.634705 6.909020 17.639643 -8.978508 -48.562526 0.000000 0.000000 0.000000 -7.125000 0.000000 0.000000 -46.937476 75.989823 35.727453 0.000000 0.000000 0.000000 -22.452365 4.066471 20.181966 -23.634206 -34.766572 -7.500525 -22.114275 -17.458644 -19.718971 0.000000 0.000000 0.000000 7.125000 0.000000 0.000000 4.012061 8.871003 3.354042
11.217434 15.346684 -21.903190 175.121055 -48.199264 -168.283160 0.000000 0.000000 0.000000 -14.926474 17.000586 -44.228243 8.322203 16.350964 53.714652 0.283382 3.909149 -12.274495 0.356227 -3.833044 -10.607705 0.000000 0.000000 0.000000 12.336910 17.188898 -17.986646 -4.099460 -12.291468 36.771282 -1.541655 8.482778 -22.229455 -0.999612 6.362616 -17.840092 -1.374163 -0.535247 1.884667 1.370930 -0.737159 0.070658 2.195425 -0.363141 -0.948667 5.723030 13.651851 -4.624096 -9.649218 19.012664 11.917202 -2.472605 8.914956 5.843128 0.000000 0.000000 0.000000 11.793281 -6.809394 -51.034085 22.723222 -33.784607 6.983875 18.036054 -8.504260 -48.890007 0.000000 0.000000 0.000000 -7.125000 0.000000 0.000000 -47.694170 76.334279 36.654616 0.000000 0.000000 0.000000 -22.749606 4.316689 18.874257 -23.107582 -34.203515 -7.199881 -21.899344 -16.365905 -19.786639 0.000000 0.000000 0.000000 7.125000 0.000000 0.000000 4.156152 8.831778 3.478253
